<svg width="408.2000244140625" height="121.05853632687044" viewBox="0 0 369.89473684210526 109.69846339768016" class="looka-1j8o68f"><defs id="SvgjsDefs2540"></defs><g id="SvgjsG2541" featurekey="odWo6G-0" transform="matrix(0.9210618371377749,0,0,0.9210618371377749,0,0)" fill="#0d7377"><path xmlns="http://www.w3.org/2000/svg" fill="#0d7377" d="M72.527,57.638c4.218,4.265,7.231,9.719,8.493,15.818c3.819,0.318,6.821,3.516,6.821,7.416  c0,4.114-3.336,7.45-7.448,7.45c-4.115,0-7.45-3.336-7.45-7.45c0-3.473,2.381-6.381,5.597-7.204  c-1.654-7.727-6.304-14.458-12.657-18.747c4.947-5.918,8.32-14.542,9.055-24.328c0.19-1.317,0.29-2.666,0.29-4.039  c0-1.374-0.1-2.722-0.29-4.04C73.088,9.766,62.626,0,50,0C37.368,0,26.906,9.771,25.062,22.524c-0.19,1.314-0.289,2.659-0.289,4.03  c0,0.556,0.021,1.107,0.053,1.655c0.047,0.801,0.124,1.594,0.236,2.374c0.018,0.238,0.038,0.476,0.059,0.712  c0.838,9.477,4.156,17.816,8.97,23.591c-1.107,0.369-2.198,0.773-3.268,1.216c-6.216,5.013-9.712,12.852-10.001,22.493  c6.311,0.552,11.318,8.354,11.318,17.929l-2.334,1.983c0.197,0.305,0.314,0.666,0.314,1.058c0,1.074-0.871,1.943-1.945,1.943  c-1.072,0-1.943-0.869-1.943-1.943s0.871-1.944,1.943-1.944c0.375,0,0.723,0.111,1.021,0.297l2.005-1.394  c0-9.156-4.966-16.579-11.092-16.579c-6.124,0-11.089,7.423-11.089,16.579l1.836,1.273c0.244-0.111,0.516-0.177,0.803-0.177  c1.074,0,1.945,0.869,1.945,1.942c0,1.075-0.871,1.944-1.945,1.944s-1.945-0.869-1.945-1.944c0-0.48,0.182-0.914,0.471-1.253  l-2.102-1.788c0-9.037,4.462-16.494,10.27-17.77c0.292-8.227,2.717-15.653,8.125-21.121C11.451,65.18,1.73,80.038,0,97.546  C9.945,112.917,28.611,119.1,50,119.1c21.386,0,40.054-6.183,49.999-21.554C98.269,80.04,87.551,65.186,72.527,57.638z   M34.439,16.266c0,0,17.433,8.478,29.156,0c0,0,6.958,11.008,5.005,15.334l3.54-4.067c-0.015,1.081-0.097,2.144-0.248,3.184  C70.684,46.816,61.344,59.344,50,59.344c-11.16,0-20.381-12.125-21.828-27.848c0.982,0.247,2.187,0.724,3.499,1.64  C31.67,33.136,29.178,18.342,34.439,16.266z M49.523,75.981L35.452,56.404c4.104,4.275,9.123,6.798,14.548,6.798  c5.062,0,9.77-2.197,13.711-5.963L49.523,75.981z M70.413,98.647h-4.986v4.985h-4.249v-4.985h-4.984v-4.248h4.984v-4.986h4.249  v4.986h4.986V98.647z"></path><path xmlns="http://www.w3.org/2000/svg" fill="#0d7377" d="M80.393,85.767c2.703,0,4.893-2.19,4.893-4.896c0-2.341-1.647-4.29-3.844-4.772  c-0.341-0.073-0.689-0.118-1.049-0.118c-0.501,0-0.973,0.097-1.427,0.235c-2.002,0.613-3.469,2.453-3.469,4.655  C75.498,83.576,77.69,85.767,80.393,85.767z"></path></g><g id="SvgjsG2542" featurekey="VGK2BT-0" transform="matrix(3.0064787802178237,0,0,3.0064787802178237,109.70660859259452,15.992043285026035)" fill="#323232"><path d="M12.661 17.5764 c0.13559 0.11864 0.13576 0.27136 -0.016784 0.42373 c-1.2542 1.3222 -2.9661 2.1186 -5 2.1186 c-3.7627 0 -6.8814 -3.0168 -6.8814 -6.8642 s3.1186 -6.9322 6.8814 -6.9322 c2 0 3.7625 0.79661 5.0337 2.1356 c0.15254 0.15238 0.15254 0.30492 0.016949 0.40661 l-1.0847 0.88119 c-0.13559 0.11881 -0.25424 0.11881 -0.38983 -0.016784 c-0.72881 -0.76271 -1.9831 -1.5593 -3.5085 -1.5593 c-3.0508 0 -5.0339 2.5424 -5.0339 5.0847 c0 2.5593 1.9831 5.0169 5.0339 5.0169 c1.5085 0 2.7288 -0.76271 3.4576 -1.5085 c0.13559 -0.15254 0.27119 -0.16933 0.40678 -0.067797 z M25.186271186440678 6.4239999999999995 l-1.3729 0 c-0.16949 0 -0.27119 0.10186 -0.27119 0.28831 l0 8.1864 c0 2.2542 -1.5932 3.3729 -3.4746 3.3729 c-1.8475 0 -3.3898 -1.1186 -3.3898 -3.3729 l0 -8.1864 c0 -0.18644 -0.10153 -0.28831 -0.27119 -0.28831 l-1.339 0 c-0.18644 0 -0.30508 0.10186 -0.30508 0.28831 l0 8.322 c0 2.8136 1.9661 5.0846 5.3051 5.0846 c3.3559 0 5.3729 -2.271 5.3898 -5.0846 l0 -8.322 c0 -0.18644 -0.10169 -0.28831 -0.27119 -0.28831 z M37.948711864406775 19.67797 c0.11864 0.16949 0.034064 0.32203 -0.1861 0.32203 l-1.2544 0 c-0.37288 0 -0.67814 -0.33881 -0.81356 -0.5422 l-2.6441 -3.8983 l-3.3559 0 l0 4.1525 c0 0.18644 -0.10169 0.28797 -0.27119 0.28797 l-1.3729 0 c-0.16949 0 -0.27119 -0.10153 -0.27119 -0.28797 l0 -13 c0 -0.15254 0.10169 -0.27119 0.27119 -0.27119 l5.2203 0 c2.9659 0 4.5592 2.5254 4.5592 4.5592 c0 1.6949 -1.0168 3.5934 -2.9322 4.2881 z M29.69511186440678 8.288 l0 5.4237 l3.3559 0 c1.9153 0 2.8644 -1.3729 2.8644 -2.7458 c0 -1.3559 -0.9661 -2.678 -2.8644 -2.678 l-3.3559 0 z M52.8647627118644 19.69492 c0.08458 0.16966 0.033898 0.30508 -0.15254 0.30508 l-1.5424 0 c-0.15254 0 -0.23712 -0.067631 -0.28797 -0.18644 l-1.0508 -2.2034 l-7.3051 0 l-1.0339 2.2034 c-0.067797 0.11881 -0.15254 0.18644 -0.28814 0.18644 l-1.5593 0 c-0.16949 0 -0.25424 -0.13543 -0.18644 -0.30508 l6.3898 -13.186 c0.050847 -0.11864 0.13559 -0.15254 0.22034 -0.15254 l0.22017 0 c0.084746 0 0.15254 0.033898 0.22034 0.15254 z M43.3560627118644 15.8646 l5.6441 0 l-2.8136 -6 z M74.79623728813559 6.441000000000001 c0.15254 0 0.27168 0.11881 0.27168 0.28847 l0 12.983 c0 0.15254 -0.10169 0.28797 -0.27136 0.28797 l-1.339 0 c-0.18644 0 -0.28814 -0.11864 -0.28814 -0.28814 l0 -9.339 l-5.5254 9.0339 c-0.084746 0.13559 -0.16949 0.20339 -0.30508 0.20339 l-0.08458 0 c-0.13559 0 -0.22034 -0.067797 -0.30508 -0.20339 l-5.5085 -9.0339 l0 9.339 c0 0.15254 -0.11881 0.28797 -0.28831 0.28797 l-1.339 0 c-0.16949 0 -0.28831 -0.11864 -0.28831 -0.28814 l0 -13 c0 -0.15254 0.10186 -0.27119 0.27119 -0.27119 l1.1525 0 c0.15254 0 0.25424 0.050847 0.33898 0.18644 l6.0169 9.8307 l6.0168 -9.8307 c0.067797 -0.13559 0.16949 -0.18644 0.33898 -0.18644 l1.1356 0 z M86.25428305084745 8.288 l-6.7288 0 l0 4.1356 l3.8983 0 c0.16949 0 0.28814 0.11864 0.28814 0.28814 l0 1.2712 c0 0.18644 -0.11864 0.28814 -0.28814 0.28814 l-3.8983 0 l0.016784 3.8814 l6.712 0 c0.16949 0 0.28814 0.11864 0.28814 0.28814 l0 1.2712 c0 0.16949 -0.11864 0.28814 -0.28814 0.28814 l-8.3559 0 c-0.16949 0 -0.28831 -0.11864 -0.28831 -0.28814 l0 -13 c0 -0.15254 0.10186 -0.27119 0.27119 -0.27119 l8.3731 0 c0.16949 0 0.28814 0.11864 0.28814 0.27119 l0 1.3051 c0 0.16949 -0.11864 0.27119 -0.28814 0.27119 z"></path></g></svg>